<?xml version="1.0" standalone="no"?>
<!DOCTYPE svg PUBLIC "-//W3C//DTD SVG 20010904//EN"
 "http://www.w3.org/TR/2001/REC-SVG-20010904/DTD/svg10.dtd">
<svg version="1.0" xmlns="http://www.w3.org/2000/svg"
 width="512.000000pt" height="512.000000pt" viewBox="0 0 512.000000 512.000000"
 preserveAspectRatio="xMidYMid meet">
<metadata>
Created by potrace 1.14, written by Peter Selinger 2001-2017
</metadata>
<g transform="translate(0.000000,512.000000) scale(0.100000,-0.100000)"
fill="#000000" stroke="none">
<path d="M0 2560 l0 -2560 2560 0 2560 0 0 2560 0 2560 -2560 0 -2560 0 0
-2560z m3643 1650 l87 0 0 -115 0 -115 110 0 110 0 -2 -1233 -3 -1233 -28 -43
c-15 -23 -39 -47 -52 -53 l-25 -11 0 -181 c0 -205 -10 -243 -71 -287 -32 -23
-41 -24 -189 -24 -148 0 -157 1 -189 24 -60 43 -71 83 -71 279 l0 172 -739 0
-739 0 -4 -182 c-3 -202 -9 -222 -72 -270 -29 -21 -43 -23 -178 -26 -166 -4
-187 2 -235 65 -28 36 -28 37 -33 229 l-5 193 -35 23 c-19 13 -44 38 -56 55
l-22 32 -6 943 c-4 519 -6 1076 -4 1238 l3 295 113 3 112 3 0 108 c0 59 3 111
8 116 4 4 484 5 1067 1 583 -3 1099 -6 1148 -6z m-2605 -762 l2 -268 -165 0
-165 0 0 270 0 270 163 -2 162 -3 3 -267z m3362 2 l0 -270 -160 0 -160 0 0
270 0 270 160 0 160 0 0 -270z"/>
<path d="M1420 3185 l0 -555 1155 0 1155 0 0 555 0 555 -1155 0 -1155 0 0
-555z"/>
<path d="M1420 2075 l0 -215 210 0 210 0 0 215 0 215 -210 0 -210 0 0 -215z"/>
<path d="M3310 2075 l0 -215 215 0 215 0 0 215 0 215 -215 0 -215 0 0 -215z"/>
</g>
</svg>
